<?xml version="1.0" encoding="UTF-8" standalone="no"?>
<svg
   xmlns:dc="http://purl.org/dc/elements/1.1/"
   xmlns:cc="http://creativecommons.org/ns#"
   xmlns:rdf="http://www.w3.org/1999/02/22-rdf-syntax-ns#"
   xmlns:svg="http://www.w3.org/2000/svg"
   xmlns="http://www.w3.org/2000/svg"
   xmlns:sodipodi="http://sodipodi.sourceforge.net/DTD/sodipodi-0.dtd"
   xmlns:inkscape="http://www.inkscape.org/namespaces/inkscape"
   enable-background="new 0 0 24 24"
   height="24px"
   viewBox="0 0 24 24"
   width="24px"
   fill="#000000"
   version="1.1"
   id="svg8"
   sodipodi:docname="wysiwyg_black_24dp.svg"
   inkscape:version="0.92.5 (2060ec1f9f, 2020-04-08)">
  <metadata
     id="metadata14">
    <rdf:RDF>
      <cc:Work
         rdf:about="">
        <dc:format>image/svg+xml</dc:format>
        <dc:type
           rdf:resource="http://purl.org/dc/dcmitype/StillImage" />
      </cc:Work>
    </rdf:RDF>
  </metadata>
  <defs
     id="defs12" />
  <sodipodi:namedview
     pagecolor="#ffffff"
     bordercolor="#666666"
     borderopacity="1"
     objecttolerance="10"
     gridtolerance="10"
     guidetolerance="10"
     inkscape:pageopacity="0"
     inkscape:pageshadow="2"
     inkscape:window-width="1920"
     inkscape:window-height="1161"
     id="namedview10"
     showgrid="false"
     inkscape:zoom="27.812867"
     inkscape:cx="12.67075"
     inkscape:cy="16.50875"
     inkscape:window-x="0"
     inkscape:window-y="21"
     inkscape:window-maximized="1"
     inkscape:current-layer="svg8" />
  <path
     inkscape:connector-curvature="0"
     id="path4-6"
     d="M 20.160534,1.5078849 H 3.839466 c -1.294027,0 -2.331581,1.049212 -2.331581,2.331581 V 20.160534 c 0,1.28237 1.037554,2.331581 2.331581,2.331581 h 16.321068 c 1.28237,0 2.331581,-1.049211 2.331581,-2.331581 V 3.8394659 c 0,-1.282369 -1.037553,-2.331581 -2.331581,-2.331581 z"
     sodipodi:nodetypes="sssssssss"
     style="stroke-width:1.16579056;fill:#ffffff" />
  <rect
     style="fill:none"
     y="0"
     x="0"
     id="rect2"
     width="24"
     height="24" />
  <path
     inkscape:connector-curvature="0"
     id="path4"
     d="M 19,3 H 5 C 3.89,3 3,3.9 3,5 v 14 c 0,1.1 0.89,2 2,2 h 14 c 1.1,0 2,-0.9 2,-2 V 5 C 21,3.9 20.11,3 19,3 Z m 0,16 H 5 V 7 H 19 Z M 17,12 H 7 v -2 h 10 z m -4,4 H 7 v -2 h 6 z" />
</svg>
