<?xml version="1.0" encoding="UTF-8" standalone="no"?>
<svg
   xmlns:dc="http://purl.org/dc/elements/1.1/"
   xmlns:cc="http://creativecommons.org/ns#"
   xmlns:rdf="http://www.w3.org/1999/02/22-rdf-syntax-ns#"
   xmlns:svg="http://www.w3.org/2000/svg"
   xmlns="http://www.w3.org/2000/svg"
   xmlns:sodipodi="http://sodipodi.sourceforge.net/DTD/sodipodi-0.dtd"
   xmlns:inkscape="http://www.inkscape.org/namespaces/inkscape"
   height="24px"
   viewBox="0 0 24 24"
   width="24px"
   fill="#000000"
   version="1.1"
   id="svg6"
   sodipodi:docname="zoom_tool_black_24dp.svg"
   inkscape:version="0.92.5 (2060ec1f9f, 2020-04-08)">
  <metadata
     id="metadata12">
    <rdf:RDF>
      <cc:Work
         rdf:about="">
        <dc:format>image/svg+xml</dc:format>
        <dc:type
           rdf:resource="http://purl.org/dc/dcmitype/StillImage" />
      </cc:Work>
    </rdf:RDF>
  </metadata>
  <defs
     id="defs10" />
  <sodipodi:namedview
     pagecolor="#ffffff"
     bordercolor="#666666"
     borderopacity="1"
     objecttolerance="10"
     gridtolerance="10"
     guidetolerance="10"
     inkscape:pageopacity="0"
     inkscape:pageshadow="2"
     inkscape:window-width="1920"
     inkscape:window-height="1161"
     id="namedview8"
     showgrid="false"
     inkscape:zoom="22.627417"
     inkscape:cx="-5.2392443"
     inkscape:cy="13.162208"
     inkscape:window-x="0"
     inkscape:window-y="21"
     inkscape:window-maximized="1"
     inkscape:current-layer="svg6" />
  <path
     d="M0 0h24v24H0V0z"
     fill="none"
     id="path2" />
  <path
     d="m 17.240022,15.214348 h -0.514525 l -0.182364,-0.175851 c 0.638272,-0.74248 1.022538,-1.706401 1.022538,-2.754991 0,-2.3381607 -1.895277,-4.2334381 -4.233437,-4.2334381 -2.33816,0 -4.233438,1.8952774 -4.233438,4.2334381 0,2.33816 1.895278,4.233437 4.233438,4.233437 1.04859,0 2.012511,-0.384266 2.754991,-1.022538 l 0.175851,0.182364 v 0.514525 l 3.25649,3.249978 L 20.49,18.470838 Z m -3.907788,0 c -1.621733,0 -2.930842,-1.30911 -2.930842,-2.930842 0,-1.621733 1.309109,-2.9308419 2.930842,-2.9308419 1.621732,0 2.930842,1.3091089 2.930842,2.9308419 0,1.621732 -1.30911,2.930842 -2.930842,2.930842 z"
     id="path4"
     inkscape:connector-curvature="0"
     sodipodi:nodetypes="cccssssccccccsssss"
     style="stroke-width:0.65129811" />
  <g
     transform="matrix(0.72931069,0,0,0.97175141,-0.64655343,0.33898308)"
     id="g3755">
    <path
       sodipodi:nodetypes="cccccccccccccccc"
       inkscape:connector-curvature="0"
       id="path16"
       d="M 9,3 5,6.99 H 8 V 14 h 2 V 6.99 h 3 z M 9,3 5,6.99 H 8 V 14 h 2 V 6.99 h 3 z" />
    <path
       sodipodi:nodetypes="cccccccccccccccc"
       inkscape:connector-curvature="0"
       id="path16-6"
       d="M 9,21 5,17.01 H 8 V 10 h 2 v 7.01 h 3 z M 9,21 5,17.01 H 8 V 10 h 2 v 7.01 h 3 z" />
  </g>
</svg>
